HIERARCHY
ROOT Hips
{
	OFFSET 0.000000 0.000000 0.000000 
	CHANNELS 6 Xposition Yposition Zposition Zrotation Yrotation Xrotation
	JOINT LeftUpLeg
	{
		OFFSET 1.363060 -1.794630 0.839290 
		CHANNELS 3 Zrotation Yrotation Xrotation
		JOINT LeftLeg
		{
			OFFSET 2.448110 -6.726130 0.000000 
			CHANNELS 3 Zrotation Yrotation Xrotation
			JOINT LeftFoot
			{
				OFFSET 2.562200 -7.039590 0.000000 
				CHANNELS 3 Zrotation Yrotation Xrotation
				JOINT LeftToeBase
				{
					OFFSET 0.157640 -0.433110 2.322550 
					CHANNELS 3 Zrotation Yrotation Xrotation
					End Site
					{
						OFFSET 0.000000 0.000000 0.000000 
					}
				}
			}
		}
	}
	JOINT RightUpLeg
	{
		OFFSET -1.305520 -1.794630 0.839290 
		CHANNELS 3 Zrotation Yrotation Xrotation
		JOINT RightLeg
		{
			OFFSET -2.542530 -6.985550 0.000000 
			CHANNELS 3 Zrotation Yrotation Xrotation
			JOINT RightFoot
			{
				OFFSET -2.568260 -7.056230 0.000000 
				CHANNELS 3 Zrotation Yrotation Xrotation
				JOINT RightToeBase
				{
					OFFSET -0.164730 -0.452590 2.363150 
					CHANNELS 3 Zrotation Yrotation Xrotation
					End Site
					{
						OFFSET 0.000000 0.000000 0.000000 
					}
				}
			}
		}
	}
	JOINT Spine
	{
		OFFSET 0.028270 2.035590 -0.193380 
		CHANNELS 3 Zrotation Yrotation Xrotation
		JOINT Spine1
		{
			OFFSET 0.056720 2.048850 -0.042750 
			CHANNELS 3 Zrotation Yrotation Xrotation
			JOINT Neck1
			{
				OFFSET -0.054170 1.746240 0.172020 
				CHANNELS 3 Zrotation Yrotation Xrotation
				JOINT Head
				{
					OFFSET 0.104070 1.761360 -0.123970 
					CHANNELS 3 Zrotation Yrotation Xrotation
					End Site
					{
						OFFSET 0.000000 0.000000 0.000000 
					}
				}
			}
			JOINT LeftArm
			{
				OFFSET 3.362410 1.200890 -0.311210 
				CHANNELS 3 Zrotation Yrotation Xrotation
				JOINT LeftForeArm
				{
					OFFSET 4.983000 -0.000000 -0.000000 
					CHANNELS 3 Zrotation Yrotation Xrotation
					JOINT LeftHand
					{
						OFFSET 3.483560 -0.000000 -0.000000 
						CHANNELS 3 Zrotation Yrotation Xrotation
						JOINT LeftHandIndex1
						{
							OFFSET 0.715260 -0.000000 -0.000000 
							CHANNELS 3 Zrotation Yrotation Xrotation
							End Site
							{
								OFFSET 0.000000 0.000000 0.000000 
							}
						}
					}
				}
			}
			JOINT RightArm
			{
				OFFSET -3.136600 1.374050 -0.404650 
				CHANNELS 3 Zrotation Yrotation Xrotation
				JOINT RightForeArm
				{
					OFFSET -5.241900 -0.000000 -0.000000 
					CHANNELS 3 Zrotation Yrotation Xrotation
					JOINT RightHand
					{
						OFFSET -3.444170 -0.000000 -0.000000 
						CHANNELS 3 Zrotation Yrotation Xrotation
						JOINT RightHandIndex1
						{
							OFFSET -0.622530 -0.000000 -0.000000 
							CHANNELS 3 Zrotation Yrotation Xrotation
							End Site
							{
								OFFSET 0.000000 0.000000 0.000000 
							}
						}
					}
				}
			}
		}
	}
}
MOTION
Frames: 12
Frame Time: 0.041667
8.557044 17.660280 -0.583577 -177.530100 -59.337711 171.999442 -26.915614 -13.390185 5.340780 -0.927172 8.073222 23.776277 -2.751192 20.180103 -29.128615 0.755200 5.550300 15.485000 34.564637 12.725950 6.660804 -0.347421 -8.055203 22.090315 1.069382 -22.016135 -38.282364 0.000000 -0.040300 0.110800 2.462862 2.039653 2.318828 -7.695046 1.058676 5.238518 11.241364 -6.964756 7.802596 -0.637600 -3.196400 0.593700 -96.300718 1.758505 11.370821 14.270590 -18.630742 -3.154293 -1.739539 -3.680980 2.951243 -7.125000 0.000000 0.000000 86.558039 41.499343 34.235745 -154.212403 41.196282 -110.684020 -0.611263 0.531968 -17.140753 7.125000 0.000000 0.000000 
8.558526 17.658912 -0.582210 -177.537452 -59.384430 171.987743 -26.909662 -13.400862 5.314186 -0.919267 8.089313 23.819062 -2.700613 20.021874 -29.134693 0.777200 5.628600 15.710500 34.542923 12.592909 6.638684 -0.347116 -8.051213 22.074493 1.195881 -22.335490 -38.107844 -0.003600 0.387800 -1.065600 2.466797 2.009534 2.311390 -7.679635 1.041705 5.197238 11.208540 -6.963353 7.773753 -0.654200 -3.199800 0.563700 -96.295404 1.779293 11.307102 14.252214 -18.601728 -3.140897 -1.740071 -3.681823 3.010787 -7.125000 0.000000 0.000000 86.444065 41.384699 34.289716 -154.100002 41.300645 -110.624758 -0.617692 0.528712 -17.085449 7.125000 0.000000 0.000000 
8.560349 17.656860 -0.581412 -177.420011 -59.419169 171.840434 -26.855855 -13.411032 5.354126 -0.914242 8.088798 23.834188 -2.687066 19.971259 -29.122964 0.779700 5.637400 15.735900 34.601974 12.480141 6.694803 -0.348145 -8.048212 22.079920 1.091033 -22.011714 -38.174728 -0.000500 0.137100 -0.376600 2.464457 2.036800 2.342423 -7.757793 1.065694 5.292431 11.228982 -6.971880 7.687238 -0.638200 -3.214300 0.530000 -96.246957 1.691696 11.290623 14.263500 -18.614615 -3.143561 -1.730193 -3.693501 3.105311 -7.125000 0.000000 0.000000 86.525073 41.795244 34.266408 -154.308164 41.091796 -110.741506 -0.620048 0.526459 -16.875349 7.125000 0.000000 0.000000 
8.561945 17.658114 -0.581754 -177.397015 -59.458360 171.839099 -26.831625 -13.387482 5.315677 -0.912092 8.091227 23.834439 -2.728129 20.043161 -29.017683 0.743600 5.508400 15.364500 34.633618 12.621280 6.721223 -0.346221 -8.049236 22.091640 0.909184 -21.603648 -38.493546 -0.003600 -0.385800 1.060200 2.471540 2.029876 2.335282 -7.709868 1.060924 5.242224 11.265974 -6.924559 7.605352 -0.598700 -3.201300 0.487000 -96.294969 1.768527 11.258805 14.300669 -18.690407 -3.174439 -1.730805 -3.682646 3.003492 -7.125000 0.000000 0.000000 86.536954 41.728622 34.426579 -154.462546 40.941423 -110.831464 -0.627334 0.526176 -16.610421 7.125000 0.000000 0.000000 
8.562743 17.657886 -0.581526 -177.437938 -59.504809 171.872529 -26.856822 -13.387372 5.322413 -0.914360 8.086160 23.816832 -2.737735 20.050595 -28.974118 0.734600 5.475600 15.270300 34.623430 12.680331 6.745271 -0.349284 -8.055974 22.121425 0.809504 -21.384685 -38.673125 -0.009300 -0.621700 1.708400 2.469428 2.032636 2.342917 -7.704783 1.062050 5.263576 11.266675 -6.903591 7.550193 -0.594300 -3.197200 0.467400 -96.297280 1.746091 11.230691 14.315553 -18.714624 -3.183266 -1.729399 -3.682515 2.982674 -7.125000 0.000000 0.000000 86.533128 41.753329 34.500582 -154.575143 40.831772 -110.896354 -0.635064 0.524091 -16.361225 7.125000 0.000000 0.000000 
8.562971 17.657772 -0.581754 -177.528067 -59.553429 171.951446 -26.913710 -13.393294 5.343021 -0.920677 8.075006 23.779694 -2.747605 20.065607 -28.940282 0.730900 5.462100 15.231400 34.590687 12.766369 6.760301 -0.353991 -8.067367 22.162910 0.739612 -21.268244 -38.844394 -0.014300 -0.773100 2.124600 2.461915 2.043821 2.352222 -7.705696 1.066496 5.299785 11.254535 -6.890614 7.510653 -0.603700 -3.194400 0.462400 -96.291346 1.702984 11.213167 14.331694 -18.738524 -3.191763 -1.726010 -3.685474 2.953361 -7.125000 0.000000 0.000000 86.520701 41.731268 34.549604 -154.693460 40.718232 -110.964262 -0.644365 0.521794 -16.077052 7.125000 0.000000 0.000000 
8.562743 17.657772 -0.582210 -177.642189 -59.600089 172.052990 -26.987572 -13.409131 5.369901 -0.928567 8.062620 23.737621 -2.754145 20.079108 -28.922532 0.733400 5.471500 15.258400 34.541078 12.841779 6.763588 -0.359899 -8.081564 22.210407 0.701937 -21.237587 -38.975160 -0.016700 -0.833900 2.292000 2.448953 2.067656 2.359992 -7.719607 1.077296 5.333617 11.233021 -6.896781 7.486580 -0.624600 -3.198900 0.469000 -96.273651 1.652178 11.213933 14.348395 -18.761822 -3.200561 -1.719233 -3.691854 2.921621 -7.125000 0.000000 0.000000 86.488040 41.620841 34.554080 -154.802675 40.613313 -111.027535 -0.655051 0.519346 -15.781246 7.125000 0.000000 0.000000 
8.562629 17.657772 -0.582665 -177.746481 -59.640925 172.143655 -27.057767 -13.435788 5.398786 -0.936201 8.051438 23.699445 -2.758201 20.092722 -28.919266 0.738900 5.491500 15.316000 34.488495 12.876708 6.755606 -0.365343 -8.094169 22.250772 0.700401 -21.285203 -39.039583 -0.015600 -0.807700 2.219700 2.432800 2.103882 2.366941 -7.748438 1.095376 5.362726 11.212321 -6.922890 7.467290 -0.647300 -3.212700 0.479100 -96.246667 1.597811 11.231254 14.365386 -18.784709 -3.209559 -1.709372 -3.701146 2.897960 -7.125000 0.000000 0.000000 86.444602 41.433634 34.510422 -154.902446 40.517247 -111.085866 -0.666586 0.517179 -15.496304 7.125000 0.000000 0.000000 
8.562857 17.657772 -0.583121 -177.810408 -59.673432 172.196983 -27.103784 -13.468093 5.421669 -0.941451 8.044210 23.674187 -2.759770 20.100258 -28.921723 0.745100 5.513900 15.380200 34.445124 12.852321 6.736893 -0.369541 -8.102618 22.275928 0.723175 -21.360165 -39.028452 -0.013100 -0.739300 2.031700 2.417233 2.146055 2.371261 -7.784923 1.117849 5.374382 11.198278 -6.958826 7.442223 -0.664200 -3.232200 0.484900 -96.220756 1.556865 11.256794 14.384412 -18.811831 -3.220602 -1.698847 -3.711046 2.882057 -7.125000 0.000000 0.000000 86.408048 41.205224 34.432773 -155.008072 40.413859 -111.147638 -0.677946 0.516142 -15.248510 7.125000 0.000000 0.000000 
8.563655 17.657886 -0.583463 -177.820765 -59.697701 172.206186 -27.114623 -13.497585 5.428760 -0.943545 8.041916 23.664665 -2.761672 20.103602 -28.916902 0.747700 5.523300 15.407200 34.421671 12.791548 6.713046 -0.371456 -8.105698 22.283329 0.748683 -21.411371 -38.976832 -0.011300 -0.686000 1.885200 2.405180 2.187304 2.372274 -7.821833 1.141062 5.366782 11.191642 -6.993669 7.404279 -0.672000 -3.253000 0.480900 -96.202101 1.534970 11.285545 14.403716 -18.840774 -3.232691 -1.690858 -3.717985 2.865640 -7.125000 0.000000 0.000000 86.384222 40.953014 34.331969 -155.113306 40.309720 -111.209000 -0.688525 0.516789 -15.062413 7.125000 0.000000 0.000000 
8.564681 17.658114 -0.583577 -177.797492 -59.717930 172.187947 -27.101050 -13.519923 5.420624 -0.943206 8.043692 23.667051 -2.768633 20.115533 -28.899810 0.742700 5.505200 15.355100 34.416403 12.728581 6.691116 -0.371297 -8.104526 22.276947 0.769398 -21.439242 -38.918247 -0.010300 -0.655600 1.801600 2.398653 2.219666 2.370887 -7.847956 1.159690 5.345574 11.186775 -7.016656 7.351098 -0.673800 -3.270200 0.465000 -96.199761 1.528330 11.299179 14.420044 -18.865572 -3.243238 -1.687803 -3.719855 2.854401 -7.125000 0.000000 0.000000 86.375732 40.705620 34.224470 -155.208426 40.215860 -111.264055 -0.698022 0.519152 -14.948713 7.125000 0.000000 0.000000 
8.565706 17.658456 -0.583577 -177.771431 -59.739254 172.167016 -27.085463 -13.538168 5.409246 -0.942049 8.046636 23.672840 -2.778925 20.134748 -28.876746 0.733300 5.471000 15.257100 34.417546 12.683645 6.678731 -0.370185 -8.101258 22.266017 0.781365 -21.449247 -38.877074 -0.009900 -0.643500 1.768400 2.396310 2.239423 2.369652 -7.863168 1.171270 5.325409 11.173933 -7.023260 7.285208 -0.677800 -3.280800 0.441200 -96.211258 1.522333 11.288275 14.431122 -18.880488 -3.249223 -1.690395 -3.717461 2.854345 -7.125000 0.000000 0.000000 86.382516 40.487472 34.112141 -155.284035 40.142770 -111.307117 -0.705866 0.522835 -14.908521 7.125000 0.000000 0.000000 
